<svg width="330" height="38" viewBox="0 0 330 38" fill="none" xmlns="http://www.w3.org/2000/svg">
<path d="M306.1 29.851C306.1 30.0043 305.933 30.1269 305.723 30.1269C305.484 30.1499 305.318 30.0273 305.318 29.851C305.318 29.6976 305.484 29.575 305.694 29.575C305.912 29.552 306.1 29.6746 306.1 29.851ZM303.848 29.506C303.797 29.6593 303.942 29.8356 304.159 29.8816C304.348 29.9583 304.565 29.8816 304.608 29.7283C304.652 29.575 304.514 29.3987 304.297 29.3297C304.109 29.276 303.899 29.3527 303.848 29.506ZM307.048 29.3757C306.838 29.4293 306.694 29.575 306.715 29.7513C306.737 29.9046 306.925 30.0043 307.142 29.9506C307.352 29.8969 307.497 29.7513 307.475 29.598C307.454 29.4523 307.258 29.3527 307.048 29.3757ZM311.812 0C301.77 0 294.088 8.07218 294.088 18.7048C294.088 27.2062 299.142 34.4811 306.36 37.0415C307.287 37.2179 307.613 36.6123 307.613 36.114C307.613 35.6387 307.591 33.017 307.591 31.4071C307.591 31.4071 302.523 32.557 301.459 29.1227C301.459 29.1227 300.633 26.8919 299.446 26.317C299.446 26.317 297.788 25.1134 299.562 25.1364C299.562 25.1364 301.365 25.2898 302.357 27.1142C303.942 30.0733 306.599 29.2223 307.635 28.7164C307.801 27.4899 308.272 26.6389 308.793 26.133C304.746 25.6577 300.662 25.0368 300.662 17.6622C300.662 15.5541 301.213 14.4962 302.371 13.147C302.183 12.6487 301.567 10.5943 302.559 7.94186C304.073 7.44357 307.555 10.0116 307.555 10.0116C309.003 9.58236 310.56 9.36004 312.102 9.36004C313.644 9.36004 315.201 9.58236 316.649 10.0116C316.649 10.0116 320.131 7.43591 321.645 7.94186C322.637 10.6019 322.021 12.6487 321.833 13.147C322.991 14.5039 323.701 15.5617 323.701 17.6622C323.701 25.0598 319.436 25.65 315.389 26.133C316.055 26.7386 316.62 27.8885 316.62 29.69C316.62 32.2734 316.598 35.47 316.598 36.0986C316.598 36.5969 316.931 37.2025 317.851 37.0262C325.091 34.4811 330 27.2062 330 18.7048C330 8.07218 321.855 0 311.812 0ZM301.126 26.4396C301.032 26.5163 301.053 26.6926 301.176 26.8383C301.292 26.9609 301.459 27.0146 301.553 26.9149C301.647 26.8383 301.625 26.6619 301.502 26.5163C301.386 26.3936 301.22 26.34 301.126 26.4396ZM300.344 25.8187C300.293 25.9184 300.366 26.041 300.51 26.1177C300.626 26.1943 300.771 26.1713 300.822 26.064C300.872 25.9643 300.8 25.8417 300.655 25.765C300.51 25.719 300.395 25.742 300.344 25.8187ZM302.69 28.5478C302.574 28.6474 302.617 28.8774 302.784 29.023C302.95 29.1994 303.16 29.2223 303.254 29.0997C303.349 29 303.305 28.7701 303.16 28.6244C303.001 28.4481 302.784 28.4251 302.69 28.5478ZM301.864 27.4209C301.748 27.4975 301.748 27.6968 301.864 27.8732C301.98 28.0495 302.176 28.1261 302.27 28.0495C302.386 27.9498 302.386 27.7505 302.27 27.5742C302.168 27.3979 301.98 27.3212 301.864 27.4209Z" fill="#F6CEBA"/>
<path d="M173.77 0H145.554C143.429 0 141.706 1.77916 141.706 3.97208V33.1007C141.706 35.2936 143.429 37.0728 145.554 37.0728H173.77C175.894 37.0728 177.618 35.2936 177.618 33.1007V3.97208C177.618 1.77916 175.894 0 173.77 0ZM169.85 13.141C169.866 13.3727 169.866 13.6127 169.866 13.8444C169.866 21.0189 164.576 29.2858 154.908 29.2858C151.926 29.2858 149.161 28.3921 146.836 26.8529C147.261 26.9026 147.67 26.9191 148.103 26.9191C150.564 26.9191 152.824 26.0585 154.628 24.6021C152.319 24.5524 150.379 22.9884 149.714 20.8369C150.524 20.961 151.253 20.961 152.087 20.7376C149.682 20.2328 147.878 18.0482 147.878 15.4084V15.3422C148.576 15.7477 149.393 15.9959 150.251 16.029C149.53 15.5339 148.939 14.8621 148.53 14.0737C148.122 13.2853 147.909 12.4048 147.91 11.5108C147.91 10.5012 148.167 9.57438 148.624 8.77169C151.213 12.0652 155.101 14.2168 159.461 14.4485C158.716 10.766 161.385 7.77866 164.592 7.77866C166.107 7.77866 167.469 8.4324 168.431 9.49163C169.618 9.25992 170.756 8.80479 171.766 8.18415C171.373 9.44197 170.548 10.5012 169.457 11.1715C170.515 11.0556 171.542 10.7495 172.487 10.3274C171.774 11.4115 170.876 12.3714 169.85 13.141Z" fill="#F6CEBA"/>
<path d="M88.8128 9.0314C83.7175 9.0314 79.6075 13.2751 79.6075 18.5364C79.6075 23.7976 83.7175 28.0414 88.8128 28.0414C93.9082 28.0414 98.0181 23.7976 98.0181 18.5364C98.0181 13.2751 93.9082 9.0314 88.8128 9.0314ZM88.8128 24.7159C85.5201 24.7159 82.8282 21.9446 82.8282 18.5364C82.8282 15.1282 85.5121 12.3569 88.8128 12.3569C92.1136 12.3569 94.7974 15.1282 94.7974 18.5364C94.7974 21.9446 92.1056 24.7159 88.8128 24.7159ZM100.542 8.6426C100.542 9.87518 99.5803 10.8596 98.3946 10.8596C97.2009 10.8596 96.2475 9.86691 96.2475 8.6426C96.2475 7.41828 97.2089 6.42559 98.3946 6.42559C99.5803 6.42559 100.542 7.41828 100.542 8.6426ZM106.639 10.8927C106.502 7.9229 105.845 5.29227 103.738 3.1249C101.639 0.957531 99.0916 0.279194 96.2155 0.13029C93.2512 -0.0434301 84.3664 -0.0434301 81.4021 0.13029C78.534 0.270921 75.9863 0.949258 73.8793 3.11663C71.7723 5.284 71.1233 7.91462 70.9791 10.8844C70.8109 13.9452 70.8109 23.1193 70.9791 26.1801C71.1153 29.1499 71.7723 31.7805 73.8793 33.9479C75.9863 36.1153 78.526 36.7936 81.4021 36.9425C84.3664 37.1162 93.2512 37.1162 96.2155 36.9425C99.0916 36.8019 101.639 36.1235 103.738 33.9479C105.837 31.7805 106.494 29.1499 106.639 26.1801C106.807 23.1193 106.807 13.9535 106.639 10.8927ZM102.809 29.4642C102.184 31.0856 100.974 32.3348 99.3961 32.9883C97.0327 33.9562 91.4246 33.7328 88.8128 33.7328C86.2011 33.7328 80.585 33.9479 78.2296 32.9883C76.6593 32.343 75.4496 31.0939 74.8166 29.4642C73.8793 27.0239 74.0956 21.2332 74.0956 18.5364C74.0956 15.8396 73.8873 10.0406 74.8166 7.60854C75.4415 5.98715 76.6513 4.73802 78.2296 4.0845C80.593 3.11663 86.2011 3.33998 88.8128 3.33998C91.4246 3.33998 97.0407 3.1249 99.3961 4.0845C100.966 4.72975 102.176 5.97888 102.809 7.60854C103.746 10.0489 103.53 15.8396 103.53 18.5364C103.53 21.2332 103.746 27.0322 102.809 29.4642Z" fill="#F6CEBA"/>
<path d="M35.9118 18.6492C35.9118 8.34702 27.8751 0 17.9559 0C8.03671 0 0 8.34702 0 18.6492C0 27.9572 6.56621 35.6726 15.1503 37.0728V24.0402H10.5889V18.6492H15.1503V14.5404C15.1503 9.86677 17.8292 7.28522 21.9322 7.28522C23.8973 7.28522 25.952 7.64918 25.952 7.64918V12.2363H23.6873C21.4573 12.2363 20.7615 13.6741 20.7615 15.1487V18.6492H25.7414L24.9449 24.0402H20.7615V37.0728C29.3456 35.6726 35.9118 27.9572 35.9118 18.6492Z" fill="#F6CEBA"/>
<path d="M258.174 5.80064C257.638 3.51738 256.059 1.71915 254.055 1.1089C250.422 0 235.853 0 235.853 0C235.853 0 221.284 0 217.651 1.1089C215.647 1.71925 214.068 3.51738 213.532 5.80064C212.559 9.93917 212.559 18.5739 212.559 18.5739C212.559 18.5739 212.559 27.2085 213.532 31.3471C214.068 33.6303 215.647 35.3536 217.651 35.9639C221.284 37.0728 235.853 37.0728 235.853 37.0728C235.853 37.0728 250.421 37.0728 254.055 35.9639C256.059 35.3536 257.638 33.6303 258.174 31.3471C259.147 27.2085 259.147 18.5739 259.147 18.5739C259.147 18.5739 259.147 9.93917 258.174 5.80064ZM231.088 26.4135V10.7342L243.265 18.574L231.088 26.4135Z" fill="#F6CEBA"/>
</svg>
